<svg width="136" height="136" viewBox="0 0 136 136" fill="none" xmlns="http://www.w3.org/2000/svg">
<path d="M19 122C22 103 25.1447 97.0001 31 88.0001M116 14C116 14 59.5063 44.1843 31 88.0001M116 14C98.7127 14.943 80.6367 19.9859 65 27.2812L55 43.5001L53 33.6057C26.0342 49.6208 11.1667 72.0649 31 88.0001M116 14C109.947 23.9384 104.587 33.3297 99.7294 42.0001L83.3873 51.0001L93 54.0801C89.5771 60.2313 86.4022 65.8983 83.3873 71.0001L65 78.0001L77 81.2478C62.9116 102.335 50.8333 103.935 31 88.0001" stroke="white" stroke-width="6"/>
</svg>
